<svg xmlns="http://www.w3.org/2000/svg" width="1440" height="980" viewBox="0 0 1440 980" fill="none">
  <defs>
    <linearGradient id="bg" x1="80" y1="32" x2="1360" y2="940" gradientUnits="userSpaceOnUse">
      <stop stop-color="#FFFDF8"/>
      <stop offset="1" stop-color="#F4F8FF"/>
    </linearGradient>
    <filter id="shadow" x="-20%" y="-20%" width="140%" height="160%">
      <feDropShadow dx="0" dy="10" stdDeviation="18" flood-color="#C9D4EA" flood-opacity="0.26"/>
    </filter>
    <style>
      text { font-family: "Segoe UI", "PingFang SC", "Microsoft YaHei", sans-serif; }
      .title { font-size: 36px; font-weight: 700; fill: #1F2A44; }
      .subtitle { font-size: 16px; font-weight: 500; fill: #5F6F8F; }
      .card-title { font-size: 18px; font-weight: 700; fill: #1F2A44; }
      .body { font-size: 13px; font-weight: 500; fill: #566780; }
      .meta { font-size: 12px; font-weight: 700; fill: #165DFF; }
    </style>
  </defs>
  <rect width="1440" height="980" fill="url(#bg)"/>
  <text x="72" y="56" class="title">广告聚合 MCP 文档 SVG 目录</text>
  <text x="72" y="86" class="subtitle">以后优先看这套 SVG 板；Markdown 只作为原始详细稿保留</text>
  <a href="./02-开发任务清单.svg">
    <rect x="72" y="130" width="1296" height="84" rx="24" fill="#FFFFFF" stroke="#DDE7F8" filter="url(#shadow)"/>
    <text x="100" y="162" class="meta">01</text>
    <text x="162" y="162" class="card-title">广告聚合 MCP v3.14.16 开发任务清单</text>
    <text x="162" y="186" class="body">源文件：02-开发任务清单.md</text>
    <text x="1160" y="162" class="meta">章节卡片 6</text>
    <text x="1160" y="186" class="body">点击进入对应 SVG 文档板</text>
  </a>
  <a href="./03-MCP-工具定义.svg">
    <rect x="72" y="238" width="1296" height="84" rx="24" fill="#FFFFFF" stroke="#DDE7F8" filter="url(#shadow)"/>
    <text x="100" y="270" class="meta">02</text>
    <text x="162" y="270" class="card-title">MCP 工具定义</text>
    <text x="162" y="294" class="body">源文件：03-MCP 工具定义.md</text>
    <text x="1160" y="270" class="meta">章节卡片 6</text>
    <text x="1160" y="294" class="body">点击进入对应 SVG 文档板</text>
  </a>
  <a href="./prd.svg">
    <rect x="72" y="346" width="1296" height="84" rx="24" fill="#FFFFFF" stroke="#DDE7F8" filter="url(#shadow)"/>
    <text x="100" y="378" class="meta">03</text>
    <text x="162" y="378" class="card-title">广告聚合 MCP v3.14.16 产品需求文档</text>
    <text x="162" y="402" class="body">源文件：prd.md</text>
    <text x="1160" y="378" class="meta">章节卡片 12</text>
    <text x="1160" y="402" class="body">点击进入对应 SVG 文档板</text>
  </a>
  <a href="./suggestion1.svg">
    <rect x="72" y="454" width="1296" height="84" rx="24" fill="#FFFFFF" stroke="#DDE7F8" filter="url(#shadow)"/>
    <text x="100" y="486" class="meta">04</text>
    <text x="162" y="486" class="card-title">suggestion1</text>
    <text x="162" y="510" class="body">源文件：suggestion1.md</text>
    <text x="1160" y="486" class="meta">章节卡片 1</text>
    <text x="1160" y="510" class="body">点击进入对应 SVG 文档板</text>
  </a>
  <a href="./版本文档v3-14-16-广告聚合MCP.svg">
    <rect x="72" y="562" width="1296" height="84" rx="24" fill="#FFFFFF" stroke="#DDE7F8" filter="url(#shadow)"/>
    <text x="100" y="594" class="meta">05</text>
    <text x="162" y="594" class="card-title">版本文档v3.14.16-广告聚合MCP</text>
    <text x="162" y="618" class="body">源文件：版本文档v3.14.16-广告聚合MCP.md</text>
    <text x="1160" y="594" class="meta">章节卡片 12</text>
    <text x="1160" y="618" class="body">点击进入对应 SVG 文档板</text>
  </a>
</svg>