<svg width="1600" height="900" viewBox="0 0 1600 900" xmlns="http://www.w3.org/2000/svg">
<defs>
  <style>
    .title { font: 700 42px Inter, Arial, sans-serif; fill: #0B132B; }
    .hdr { font: 700 26px 'Noto Sans SC', 'Microsoft YaHei', sans-serif; fill: #FFFFFF; }
    .label { font: 700 22px 'Noto Sans SC', 'Microsoft YaHei', sans-serif; fill: #0B132B; }
    .text { font: 500 19px 'Noto Sans SC', 'Microsoft YaHei', sans-serif; fill: #374151; }
  </style>
</defs>
<rect width="1600" height="900" fill="#F8FAFC"/>
<text x="70" y="80" class="title">Dataki vs BI / 数据中台</text>
<rect x="70" y="130" width="360" height="74" rx="18" fill="#374151"/>
<rect x="450" y="130" width="360" height="74" rx="18" fill="#374151"/>
<rect x="830" y="130" width="700" height="74" rx="18" fill="#0B132B"/>
<text x="190" y="177" class="hdr">传统 BI</text>
<text x="552" y="177" class="hdr">数据中台</text>
<text x="1110" y="177" class="hdr">Dataki</text>

    <rect x="70" y="230" width="1460" height="78" rx="18" fill="#FFFFFF" stroke="#D1D5DB"/>
    <text x="100" y="277" class="label">核心对象</text>
    <text x="220" y="277" class="text">指标 / 报表</text>
    <text x="600" y="277" class="text">数据资产 / 接口 / 模型</text>
    <text x="980" y="277" class="text">知识 + 数据 + 推理</text>
    
    <rect x="70" y="330" width="1460" height="78" rx="18" fill="#FFFFFF" stroke="#D1D5DB"/>
    <text x="100" y="377" class="label">用户获得</text>
    <text x="220" y="377" class="text">看见发生了什么</text>
    <text x="600" y="377" class="text">拿到标准化数据能力</text>
    <text x="980" y="377" class="text">理解为什么，并获得下一步建议</text>
    
    <rect x="70" y="430" width="1460" height="78" rx="18" fill="#FFFFFF" stroke="#D1D5DB"/>
    <text x="100" y="477" class="label">知识作用</text>
    <text x="220" y="477" class="text">弱，靠人解释</text>
    <text x="600" y="477" class="text">弱，常游离在系统外</text>
    <text x="980" y="477" class="text">强，知识参与检索、推理与沉淀</text>
    
    <rect x="70" y="530" width="1460" height="78" rx="18" fill="#FFFFFF" stroke="#D1D5DB"/>
    <text x="100" y="577" class="label">交互方式</text>
    <text x="220" y="577" class="text">报表浏览</text>
    <text x="600" y="577" class="text">能力调用 / 数据服务</text>
    <text x="980" y="577" class="text">对话式分析 + 自动 Wiki + Agent 协作</text>
    
    <rect x="70" y="630" width="1460" height="78" rx="18" fill="#FFFFFF" stroke="#D1D5DB"/>
    <text x="100" y="677" class="label">组织价值</text>
    <text x="220" y="677" class="text">提升看数效率</text>
    <text x="600" y="677" class="text">提升供数效率</text>
    <text x="980" y="677" class="text">提升解释、复用与决策效率</text>
    
    <rect x="70" y="730" width="1460" height="78" rx="18" fill="#FFFFFF" stroke="#D1D5DB"/>
    <text x="100" y="777" class="label">最终定位</text>
    <text x="220" y="777" class="text">可视化工具</text>
    <text x="600" y="777" class="text">数据基础设施</text>
    <text x="980" y="777" class="text">数据与知识交汇的智能系统</text>
    
</svg>