<svg width="512" height="512" viewBox="0 0 512 512" fill="none" xmlns="http://www.w3.org/2000/svg">
<defs>
  <linearGradient id="dotGrad" x1="0" y1="0" x2="1" y2="1">
    <stop offset="0%" stop-color="#38BDF8"/>
    <stop offset="100%" stop-color="#2563EB"/>
  </linearGradient>
  <linearGradient id="blockGrad" x1="0" y1="0" x2="1" y2="1">
    <stop offset="0%" stop-color="#B388FF"/>
    <stop offset="100%" stop-color="#7C3AED"/>
  </linearGradient>
  <radialGradient id="meetGlow" cx="50%" cy="50%" r="50%">
    <stop offset="0%" stop-color="#FFFFFF" stop-opacity="1"/>
    <stop offset="100%" stop-color="#FFFFFF" stop-opacity="0"/>
  </radialGradient>
</defs>
<rect width="512" height="512" rx="104" fill="#FFFFFF"/>
<g transform="translate(48,76)">
  <circle cx="20" cy="100" r="5" fill="url(#dotGrad)"/>
  <circle cx="36" cy="68" r="7" fill="url(#dotGrad)"/>
  <circle cx="40" cy="132" r="7" fill="url(#dotGrad)"/>
  <circle cx="64" cy="40" r="7" fill="url(#dotGrad)"/>
  <circle cx="64" cy="100" r="9" fill="url(#dotGrad)"/>
  <circle cx="64" cy="160" r="7" fill="url(#dotGrad)"/>
  <circle cx="92" cy="20" r="6" fill="url(#dotGrad)"/>
  <circle cx="92" cy="56" r="10" fill="url(#dotGrad)"/>
  <circle cx="92" cy="100" r="11" fill="url(#dotGrad)"/>
  <circle cx="92" cy="144" r="10" fill="url(#dotGrad)"/>
  <circle cx="92" cy="180" r="6" fill="url(#dotGrad)"/>
  <circle cx="132" cy="34" r="14" fill="url(#dotGrad)"/>
  <circle cx="132" cy="78" r="16" fill="url(#dotGrad)"/>
  <circle cx="132" cy="100" r="18" fill="url(#dotGrad)"/>
  <circle cx="132" cy="122" r="16" fill="url(#dotGrad)"/>
  <circle cx="132" cy="166" r="14" fill="url(#dotGrad)"/>
  <ellipse cx="170" cy="100" rx="34" ry="56" fill="url(#dotGrad)"/>
  <ellipse cx="212" cy="100" rx="24" ry="56" fill="url(#meetGlow)"/>
  <path d="M226 100C226 62 246 42 288 24V176C246 158 226 138 226 100Z" fill="url(#blockGrad)"/>
  <rect x="268" y="10" width="28" height="28" rx="5" fill="url(#blockGrad)"/>
  <rect x="268" y="56" width="28" height="28" rx="5" fill="url(#blockGrad)"/>
  <rect x="268" y="102" width="28" height="28" rx="5" fill="url(#blockGrad)"/>
  <rect x="268" y="148" width="28" height="28" rx="5" fill="url(#blockGrad)"/>
  <rect x="310" y="22" width="18" height="18" rx="4" fill="url(#blockGrad)"/>
  <rect x="310" y="82" width="18" height="18" rx="4" fill="url(#blockGrad)"/>
  <rect x="310" y="142" width="18" height="18" rx="4" fill="url(#blockGrad)"/>
</g>
</svg>