<svg width="1600" height="480" viewBox="0 0 1600 480" fill="none" xmlns="http://www.w3.org/2000/svg">
<defs>
  <linearGradient id="dotGrad" x1="0" y1="0" x2="1" y2="1">
    <stop offset="0%" stop-color="#38BDF8"/>
    <stop offset="100%" stop-color="#2563EB"/>
  </linearGradient>
  <linearGradient id="blockGrad" x1="0" y1="0" x2="1" y2="1">
    <stop offset="0%" stop-color="#B388FF"/>
    <stop offset="100%" stop-color="#7C3AED"/>
  </linearGradient>
  <radialGradient id="meetGlow" cx="50%" cy="50%" r="50%">
    <stop offset="0%" stop-color="#FFFFFF" stop-opacity="1"/>
    <stop offset="45%" stop-color="#FFFFFF" stop-opacity="0.95"/>
    <stop offset="100%" stop-color="#FFFFFF" stop-opacity="0"/>
  </radialGradient>
  <filter id="softGlow"><feGaussianBlur stdDeviation="10"/></filter>
  <style>
    .wordmark { font: 700 120px Inter, Segoe UI, Arial, sans-serif; fill: #0B132B; letter-spacing: -2px; }
    .tagline { font: 500 40px 'Noto Sans SC', 'Microsoft YaHei', sans-serif; fill: #0B132B; letter-spacing: 8px; }
  </style>
</defs>
<rect width="1600" height="480" fill="#FFFFFF"/>
<g transform="translate(95,92)">
  <circle cx="40" cy="140" r="7" fill="url(#dotGrad)"/>
  <circle cx="62" cy="94" r="9" fill="url(#dotGrad)"/>
  <circle cx="68" cy="186" r="9" fill="url(#dotGrad)"/>
  <circle cx="95" cy="54" r="10" fill="url(#dotGrad)"/>
  <circle cx="95" cy="140" r="11" fill="url(#dotGrad)"/>
  <circle cx="95" cy="226" r="10" fill="url(#dotGrad)"/>
  <circle cx="132" cy="26" r="9" fill="url(#dotGrad)"/>
  <circle cx="132" cy="80" r="12" fill="url(#dotGrad)"/>
  <circle cx="132" cy="140" r="13" fill="url(#dotGrad)"/>
  <circle cx="132" cy="200" r="12" fill="url(#dotGrad)"/>
  <circle cx="132" cy="254" r="9" fill="url(#dotGrad)"/>
  <circle cx="178" cy="14" r="8" fill="url(#dotGrad)"/>
  <circle cx="178" cy="66" r="13" fill="url(#dotGrad)"/>
  <circle cx="178" cy="118" r="16" fill="url(#dotGrad)"/>
  <circle cx="178" cy="172" r="16" fill="url(#dotGrad)"/>
  <circle cx="178" cy="224" r="13" fill="url(#dotGrad)"/>
  <circle cx="178" cy="276" r="8" fill="url(#dotGrad)"/>
  <circle cx="232" cy="38" r="18" fill="url(#dotGrad)"/>
  <circle cx="232" cy="96" r="20" fill="url(#dotGrad)"/>
  <circle cx="232" cy="140" r="22" fill="url(#dotGrad)"/>
  <circle cx="232" cy="184" r="20" fill="url(#dotGrad)"/>
  <circle cx="232" cy="242" r="18" fill="url(#dotGrad)"/>
  <ellipse cx="286" cy="140" rx="58" ry="88" fill="url(#dotGrad)"/>
</g>
<ellipse cx="383" cy="232" rx="42" ry="88" fill="url(#meetGlow)"/>
<ellipse cx="383" cy="232" rx="42" ry="88" fill="#FFFFFF" opacity="0.45" filter="url(#softGlow)"/>
<g transform="translate(392,98)">
  <path d="M26 132C26 72 58 38 126 12V252C58 226 26 192 26 132Z" fill="url(#blockGrad)"/>
  <rect x="88" y="0" width="42" height="42" rx="6" fill="url(#blockGrad)"/>
  <rect x="88" y="64" width="42" height="42" rx="6" fill="url(#blockGrad)"/>
  <rect x="88" y="128" width="42" height="42" rx="6" fill="url(#blockGrad)"/>
  <rect x="88" y="192" width="42" height="42" rx="6" fill="url(#blockGrad)"/>
  <rect x="152" y="16" width="28" height="28" rx="5" fill="url(#blockGrad)"/>
  <rect x="152" y="96" width="28" height="28" rx="5" fill="url(#blockGrad)"/>
  <rect x="152" y="176" width="28" height="28" rx="5" fill="url(#blockGrad)"/>
</g>
<text x="640" y="220" class="wordmark">Dataki</text>
<text x="640" y="318" class="tagline">让知识与数据相遇</text>
</svg>